<svg width="67" height="70" viewBox="0 0 67 70" fill="none" xmlns="http://www.w3.org/2000/svg">
<path d="M23.5266 50.6574L21.6385 49.7535L10.4219 66.3382H22.9398L24.1461 65.5516V51.225L23.5266 50.6574Z" fill="#407093"/>
<path d="M21.8097 49.8353L17.5646 47.803H16.7645L4.76074 65.5516L5.47537 66.3382H10.6484L21.8097 49.8353Z" fill="#365E7D"/>
<path d="M26.4004 65.5515H9.84791C9.09596 65.5515 8.48633 66.161 8.48633 66.9131V68.6385C8.48633 69.3903 9.09582 69.9998 9.84763 69.9999H26.4004C27.1524 69.9999 27.762 69.3904 27.762 68.6385V66.9131C27.762 66.161 27.1524 65.5515 26.4004 65.5515V65.5515Z" fill="#4A80AA"/>
<path d="M8.76775 68.6385V66.9131C8.76775 66.1611 9.37738 65.5515 10.1293 65.5515H1.36158C0.609627 65.5515 0 66.161 0 66.9131V68.6385C0 69.3904 0.609627 69.9999 1.36158 69.9999H10.1292C9.37724 69.9999 8.76775 69.3904 8.76775 68.6385V68.6385Z" fill="#407093"/>
<path d="M21.2399 39.9827C20.7303 41.0338 20.4424 42.2123 20.4424 43.459C20.4424 46.8659 22.5757 49.7721 25.5783 50.9218C26.8675 50.5179 28.0129 49.7893 28.9177 48.8301V47.0893L21.2399 39.9827Z" fill="#4A80AA"/>
<path d="M20.5762 43.4863C20.5762 42.2684 20.8579 41.1173 21.3565 40.0909L18.9022 37.8192H17.9064C16.4004 39.2399 15.459 41.2525 15.459 43.4862C15.459 47.7893 18.9472 51.2775 23.2503 51.2775C24.1466 51.2775 25.0062 51.1237 25.8073 50.8449C22.7623 49.7856 20.5762 46.8921 20.5762 43.4863V43.4863Z" fill="#407093"/>
<path d="M65.8115 0.924695C64.5786 -0.308232 62.5796 -0.308232 61.3468 0.924695L58.334 3.93756V4.31941L62.0944 8.23954L62.7987 8.40223L65.8114 5.38937C67.0445 4.15658 67.0445 2.15762 65.8115 0.924695V0.924695Z" fill="#FFD086"/>
<path d="M66.6444 2.41492C66.5129 1.86915 66.2375 1.35085 65.8115 0.924695C64.5786 -0.308232 62.5796 -0.308232 61.3468 0.924695L58.334 3.93756V4.31941L60.3277 6.3978C61.5164 5.16091 62.6965 3.94029 63.3034 3.3334C64.3151 2.32182 65.7928 2.31403 66.6444 2.41492V2.41492Z" fill="#FFC365"/>
<path d="M55.4971 8.95026C55.4625 8.95026 55.4275 8.94848 55.3924 8.94507L20.5759 5.51808C19.9953 5.46094 19.5711 4.944 19.6282 4.36336C19.6854 3.78272 20.2026 3.35875 20.7829 3.41549L55.5994 6.84234C56.1799 6.89949 56.6042 7.41642 56.5471 7.99706C56.4934 8.5427 56.0338 8.95026 55.4971 8.95026Z" fill="#365E7D"/>
<path d="M30.6457 15.4681C30.1772 15.4681 29.7491 15.1539 29.6247 14.6795C29.4766 14.1151 29.8142 13.5377 30.3784 13.3896L55.2285 6.87154C55.7927 6.72374 56.3703 7.06103 56.5183 7.6254C56.6663 8.18964 56.3289 8.76714 55.7645 8.9152L30.9145 15.4333C30.8245 15.4568 30.7343 15.4681 30.6457 15.4681V15.4681Z" fill="#407093"/>
<path d="M62.246 47.136C61.7089 47.136 61.2493 46.7281 61.1959 46.1823L57.7902 11.3445C57.7335 10.764 58.1581 10.2472 58.7388 10.1903C59.3194 10.1362 59.8361 10.5584 59.8928 11.139L63.2985 45.9768C63.3552 46.5573 62.9306 47.0741 62.3499 47.131C62.3151 47.1342 62.2803 47.136 62.246 47.136Z" fill="#365E7D"/>
<path d="M52.2252 37.2475C52.1357 37.2475 52.0446 37.2359 51.9538 37.212C51.3899 37.0624 51.054 36.4841 51.2035 35.9201L57.8176 10.9741C57.967 10.41 58.5452 10.0746 59.1093 10.2236C59.6732 10.3732 60.0092 10.9515 59.8596 11.5155L53.2456 36.4615C53.1202 36.9348 52.6927 37.2475 52.2252 37.2475V37.2475Z" fill="#407093"/>
<path d="M55.3066 6.96429L58.3271 3.94375L62.7912 8.40782L59.7707 11.4284L55.3066 6.96429Z" fill="#FFC365"/>
<path d="M57.6008 9.24573C58.3268 8.48557 59.4604 7.29995 60.5569 6.15999L58.3345 3.9375L55.3135 6.95843L57.6008 9.24573Z" fill="#FFA90F"/>
<path d="M60.4509 13.1519C60.1806 13.1519 59.9102 13.0487 59.704 12.8425L53.8944 7.03305C53.4818 6.62044 53.4818 5.95175 53.8944 5.53899C54.3069 5.12665 54.9757 5.12665 55.3883 5.53899L61.1979 11.3484C61.6105 11.761 61.6105 12.4297 61.1979 12.8425C60.9916 13.0488 60.7213 13.1519 60.4509 13.1519Z" fill="#4A80AA"/>
<path d="M61.1328 49.0376L25.762 13.36C21.0725 23.9466 20.2583 35.3114 23.7689 45.1115C33.4644 53.8573 47.9477 55.2003 61.281 49.7026L61.1328 49.0376Z" fill="#B5DCFF"/>
<path d="M25.9506 13.55L17.8466 5.37573L17.0345 5.45585C11.3249 19.3031 12.992 34.3917 22.6687 44.0684C23.2548 44.6545 23.8613 45.2107 24.4857 45.7383C20.4065 35.9498 21.0695 24.3077 25.9506 13.55V13.55Z" fill="#8BCAFF"/>
<path d="M64.3651 46.5017L28.4916 10.6282C28.1385 10.6826 27.7987 10.8431 27.5269 11.1149L25.9665 12.6754C25.6314 13.0105 25.4647 13.4481 25.46 13.8874L61.2197 49.647C61.7514 50.1787 62.6134 50.1787 63.1451 49.647L64.3652 48.4271C64.8968 47.8955 64.8968 47.0334 64.3651 46.5017Z" fill="#DBEDFF"/>
<path d="M26.0199 12.7021L27.5477 11.1743C27.8291 10.8929 28.1844 10.7318 28.5511 10.6882L20.2348 2.37192C19.7031 1.84022 18.8411 1.84022 18.3093 2.37192L17.0892 3.59199C16.5575 4.12369 16.5575 4.9857 17.0892 5.5174L25.5224 13.9506C25.5113 13.5 25.6761 13.0459 26.0199 12.7021V12.7021Z" fill="#B5DCFF"/>
</svg>
